<?xml version="1.0" standalone="no"?>
<!DOCTYPE svg PUBLIC "-//W3C//DTD SVG 1.0//EN" "http://www.w3.org/TR/2001/REC-SVG-20010904/DTD/svg10.dtd">
<svg xmlns="http://www.w3.org/2000/svg" xmlns:xlink="http://www.w3.org/1999/xlink" id="body_1" width="48" height="48">

<g transform="matrix(0.050000004 0 0 0.050000004 -0 48)">
    <path d="M281 -240C 271.6667 -240 262.5 -244.66667 253.5 -254C 247.5 -260.22223 243 -269.55554 240 -282L240 -282L240 -380L740 -380L740 -720L840 -720C 849.3334 -720 858.3334 -715.3334 867 -706C 872.7778 -699.7778 877.1111 -690.1111 880 -677L880 -677L880 -81L721 -240L281 -240zM80 -280L80 -838C 80 -847.3334 84.333336 -856.6667 93 -866C 98.77778 -872.2222 107.77778 -876.8889 120 -880L120 -880L639 -880C 649 -880 658.3334 -875.5 667 -866.5C 672.7778 -860.5 677.1111 -851 680 -838L680 -838L680 -482C 680 -472.6667 675.6667 -463.33334 667 -454C 661.2222 -447.7778 651.8889 -443.11115 639 -440L639 -440L240 -440L80 -280zM620 -500L620 -820L140 -820L140 -420L214 -500L620 -500zM140 -500L140 -820L140 -500z" stroke="none" fill="#000000" fill-rule="nonzero" />
</g>
</svg>